<svg width="152" height="35" viewBox="0 0 152 35" fill="none" xmlns="http://www.w3.org/2000/svg">
<path d="M11.341 3L3 17.447L11.341 31.894H28.023L30.803 27.078H14.121L8.561 17.447L14.121 7.816H30.803L28.023 3H11.341Z" fill="white"/>
<path d="M16.9021 12.6318L14.1211 17.4468L16.9021 22.2628H22.4621L25.2421 17.4468L22.4621 12.6318H16.9021Z" fill="white"/>
<path d="M42.992 24C42.6933 24 42.448 23.9093 42.256 23.728C42.064 23.536 41.968 23.3013 41.968 23.024V13.744H44.048V23.024C44.048 23.3013 43.9467 23.536 43.744 23.728C43.552 23.9093 43.3013 24 42.992 24ZM39.456 14.64C39.1787 14.64 38.944 14.5547 38.752 14.384C38.5707 14.2133 38.48 13.9893 38.48 13.712C38.48 13.4347 38.5707 13.216 38.752 13.056C38.944 12.8853 39.1787 12.8 39.456 12.8H46.56C46.8373 12.8 47.0667 12.8853 47.248 13.056C47.44 13.2267 47.536 13.4507 47.536 13.728C47.536 14.0053 47.44 14.2293 47.248 14.4C47.0667 14.56 46.8373 14.64 46.56 14.64H39.456ZM51.1658 24.16C50.2591 24.16 49.4698 23.9733 48.7978 23.6C48.1364 23.216 47.6244 22.6987 47.2618 22.048C46.9098 21.3973 46.7338 20.6613 46.7338 19.84C46.7338 18.88 46.9258 18.064 47.3098 17.392C47.7044 16.7093 48.2164 16.1867 48.8458 15.824C49.4751 15.4613 50.1418 15.28 50.8458 15.28C51.3898 15.28 51.9018 15.392 52.3818 15.616C52.8724 15.84 53.3044 16.1493 53.6778 16.544C54.0511 16.928 54.3444 17.376 54.5578 17.888C54.7818 18.4 54.8938 18.944 54.8938 19.52C54.8831 19.776 54.7818 19.984 54.5898 20.144C54.3978 20.304 54.1738 20.384 53.9178 20.384H47.8058L47.3258 18.784H53.1978L52.8458 19.104V18.672C52.8244 18.3627 52.7124 18.0853 52.5098 17.84C52.3178 17.5947 52.0724 17.4027 51.7738 17.264C51.4858 17.1147 51.1764 17.04 50.8458 17.04C50.5258 17.04 50.2271 17.0827 49.9498 17.168C49.6724 17.2533 49.4324 17.3973 49.2298 17.6C49.0271 17.8027 48.8671 18.0747 48.7498 18.416C48.6324 18.7573 48.5738 19.1893 48.5738 19.712C48.5738 20.288 48.6911 20.7787 48.9258 21.184C49.1711 21.5787 49.4804 21.8827 49.8538 22.096C50.2378 22.2987 50.6431 22.4 51.0698 22.4C51.4644 22.4 51.7791 22.368 52.0138 22.304C52.2484 22.24 52.4351 22.1653 52.5738 22.08C52.7231 21.984 52.8564 21.904 52.9738 21.84C53.1658 21.744 53.3471 21.696 53.5178 21.696C53.7524 21.696 53.9444 21.776 54.0938 21.936C54.2538 22.096 54.3338 22.2827 54.3338 22.496C54.3338 22.784 54.1844 23.0453 53.8858 23.28C53.6084 23.5147 53.2191 23.7227 52.7178 23.904C52.2164 24.0747 51.6991 24.16 51.1658 24.16ZM63.6418 15.28C63.9191 15.28 64.1484 15.3707 64.3298 15.552C64.5111 15.7333 64.6018 15.968 64.6018 16.256V23.024C64.6018 23.3013 64.5111 23.536 64.3298 23.728C64.1484 23.9093 63.9191 24 63.6418 24C63.3644 24 63.1351 23.9093 62.9538 23.728C62.7724 23.536 62.6818 23.3013 62.6818 23.024V22.24L63.0338 22.384C63.0338 22.5227 62.9591 22.6933 62.8098 22.896C62.6604 23.088 62.4578 23.28 62.2018 23.472C61.9458 23.664 61.6418 23.8293 61.2898 23.968C60.9484 24.096 60.5751 24.16 60.1698 24.16C59.4338 24.16 58.7671 23.9733 58.1698 23.6C57.5724 23.216 57.0978 22.6933 56.7458 22.032C56.4044 21.36 56.2338 20.592 56.2338 19.728C56.2338 18.8533 56.4044 18.0853 56.7458 17.424C57.0978 16.752 57.5671 16.2293 58.1538 15.856C58.7404 15.472 59.3911 15.28 60.1058 15.28C60.5644 15.28 60.9858 15.3493 61.3698 15.488C61.7538 15.6267 62.0844 15.8027 62.3618 16.016C62.6498 16.2293 62.8684 16.448 63.0178 16.672C63.1778 16.8853 63.2578 17.0667 63.2578 17.216L62.6818 17.424V16.256C62.6818 15.9787 62.7724 15.7493 62.9538 15.568C63.1351 15.376 63.3644 15.28 63.6418 15.28ZM60.4098 22.4C60.8791 22.4 61.2898 22.2827 61.6418 22.048C61.9938 21.8133 62.2658 21.4933 62.4578 21.088C62.6604 20.6827 62.7618 20.2293 62.7618 19.728C62.7618 19.216 62.6604 18.7573 62.4578 18.352C62.2658 17.9467 61.9938 17.6267 61.6418 17.392C61.2898 17.1573 60.8791 17.04 60.4098 17.04C59.9511 17.04 59.5458 17.1573 59.1938 17.392C58.8418 17.6267 58.5644 17.9467 58.3618 18.352C58.1698 18.7573 58.0738 19.216 58.0738 19.728C58.0738 20.2293 58.1698 20.6827 58.3618 21.088C58.5644 21.4933 58.8418 21.8133 59.1938 22.048C59.5458 22.2827 59.9511 22.4 60.4098 22.4ZM70.4886 15.28C71.0966 15.28 71.6246 15.344 72.0726 15.472C72.5313 15.6 72.8833 15.7813 73.1286 16.016C73.3846 16.24 73.5126 16.512 73.5126 16.832C73.5126 17.0453 73.4486 17.248 73.3206 17.44C73.1926 17.6213 73.006 17.712 72.7606 17.712C72.59 17.712 72.446 17.6907 72.3286 17.648C72.222 17.5947 72.126 17.5307 72.0406 17.456C71.9553 17.3813 71.854 17.312 71.7366 17.248C71.63 17.184 71.4646 17.136 71.2406 17.104C71.0273 17.0613 70.8673 17.04 70.7606 17.04C70.2166 17.04 69.7526 17.1573 69.3686 17.392C68.9953 17.6267 68.7073 17.9467 68.5046 18.352C68.302 18.7467 68.2006 19.2053 68.2006 19.728C68.2006 20.24 68.302 20.6987 68.5046 21.104C68.718 21.4987 69.006 21.8133 69.3686 22.048C69.742 22.2827 70.1686 22.4 70.6486 22.4C70.9153 22.4 71.1446 22.384 71.3366 22.352C71.5286 22.32 71.6886 22.272 71.8166 22.208C71.966 22.1227 72.0993 22.032 72.2166 21.936C72.334 21.84 72.51 21.792 72.7446 21.792C73.022 21.792 73.2353 21.8827 73.3846 22.064C73.534 22.2347 73.6086 22.448 73.6086 22.704C73.6086 22.9707 73.4593 23.216 73.1606 23.44C72.862 23.6533 72.4673 23.8293 71.9766 23.968C71.4966 24.096 70.974 24.16 70.4086 24.16C69.566 24.16 68.8353 23.968 68.2166 23.584C67.598 23.1893 67.118 22.656 66.7766 21.984C66.446 21.312 66.2806 20.56 66.2806 19.728C66.2806 18.8533 66.4566 18.0853 66.8086 17.424C67.1713 16.752 67.6673 16.2293 68.2966 15.856C68.9366 15.472 69.6673 15.28 70.4886 15.28ZM79.4891 15.28C80.2571 15.28 80.8385 15.4453 81.2331 15.776C81.6385 16.1067 81.9158 16.5493 82.0651 17.104C82.2145 17.648 82.2891 18.256 82.2891 18.928V23.024C82.2891 23.3013 82.1985 23.536 82.0171 23.728C81.8358 23.9093 81.6065 24 81.3291 24C81.0518 24 80.8225 23.9093 80.6411 23.728C80.4598 23.536 80.3691 23.3013 80.3691 23.024V18.928C80.3691 18.576 80.3265 18.2613 80.2411 17.984C80.1558 17.696 80.0011 17.4667 79.7771 17.296C79.5531 17.1253 79.2331 17.04 78.8171 17.04C78.4118 17.04 78.0651 17.1253 77.7771 17.296C77.4891 17.4667 77.2705 17.696 77.1211 17.984C76.9825 18.2613 76.9131 18.576 76.9131 18.928V23.024C76.9131 23.3013 76.8225 23.536 76.6411 23.728C76.4598 23.9093 76.2305 24 75.9531 24C75.6758 24 75.4465 23.9093 75.2651 23.728C75.0838 23.536 74.9931 23.3013 74.9931 23.024V13.136C74.9931 12.8587 75.0838 12.6293 75.2651 12.448C75.4465 12.256 75.6758 12.16 75.9531 12.16C76.2305 12.16 76.4598 12.256 76.6411 12.448C76.8225 12.6293 76.9131 12.8587 76.9131 13.136V17.104L76.6731 17.056C76.7691 16.8747 76.9025 16.6827 77.0731 16.48C77.2438 16.2667 77.4518 16.0693 77.6971 15.888C77.9425 15.7067 78.2145 15.5627 78.5131 15.456C78.8118 15.3387 79.1371 15.28 79.4891 15.28ZM88.4001 24.16C87.4935 24.16 86.7041 23.9733 86.0321 23.6C85.3708 23.216 84.8588 22.6987 84.4961 22.048C84.1441 21.3973 83.9681 20.6613 83.9681 19.84C83.9681 18.88 84.1601 18.064 84.5441 17.392C84.9388 16.7093 85.4508 16.1867 86.0801 15.824C86.7095 15.4613 87.3761 15.28 88.0801 15.28C88.6241 15.28 89.1361 15.392 89.6161 15.616C90.1068 15.84 90.5388 16.1493 90.9121 16.544C91.2855 16.928 91.5788 17.376 91.7921 17.888C92.0161 18.4 92.1281 18.944 92.1281 19.52C92.1175 19.776 92.0161 19.984 91.8241 20.144C91.6321 20.304 91.4081 20.384 91.1521 20.384H85.0401L84.5601 18.784H90.4321L90.0801 19.104V18.672C90.0588 18.3627 89.9468 18.0853 89.7441 17.84C89.5521 17.5947 89.3068 17.4027 89.0081 17.264C88.7201 17.1147 88.4108 17.04 88.0801 17.04C87.7601 17.04 87.4615 17.0827 87.1841 17.168C86.9068 17.2533 86.6668 17.3973 86.4641 17.6C86.2615 17.8027 86.1015 18.0747 85.9841 18.416C85.8668 18.7573 85.8081 19.1893 85.8081 19.712C85.8081 20.288 85.9255 20.7787 86.1601 21.184C86.4055 21.5787 86.7148 21.8827 87.0881 22.096C87.4721 22.2987 87.8775 22.4 88.3041 22.4C88.6988 22.4 89.0135 22.368 89.2481 22.304C89.4828 22.24 89.6695 22.1653 89.8081 22.08C89.9575 21.984 90.0908 21.904 90.2081 21.84C90.4001 21.744 90.5815 21.696 90.7521 21.696C90.9868 21.696 91.1788 21.776 91.3281 21.936C91.4881 22.096 91.5681 22.2827 91.5681 22.496C91.5681 22.784 91.4188 23.0453 91.1201 23.28C90.8428 23.5147 90.4535 23.7227 89.9521 23.904C89.4508 24.0747 88.9335 24.16 88.4001 24.16ZM94.7656 24C94.4883 24 94.259 23.9093 94.0776 23.728C93.8963 23.536 93.8056 23.3013 93.8056 23.024V16.416C93.8056 16.1387 93.8963 15.9093 94.0776 15.728C94.259 15.536 94.4883 15.44 94.7656 15.44C95.043 15.44 95.2723 15.536 95.4536 15.728C95.635 15.9093 95.7256 16.1387 95.7256 16.416V17.92L95.6136 16.848C95.731 16.592 95.8803 16.368 96.0616 16.176C96.2536 15.9733 96.467 15.808 96.7016 15.68C96.9363 15.5413 97.187 15.44 97.4536 15.376C97.7203 15.312 97.987 15.28 98.2536 15.28C98.5736 15.28 98.8403 15.3707 99.0536 15.552C99.2776 15.7333 99.3896 15.9467 99.3896 16.192C99.3896 16.544 99.299 16.8 99.1176 16.96C98.9363 17.1093 98.739 17.184 98.5256 17.184C98.323 17.184 98.1363 17.1467 97.9656 17.072C97.8056 16.9973 97.619 16.96 97.4056 16.96C97.2136 16.96 97.0163 17.008 96.8136 17.104C96.6216 17.1893 96.4403 17.328 96.2696 17.52C96.1096 17.712 95.9763 17.952 95.8696 18.24C95.7736 18.5173 95.7256 18.848 95.7256 19.232V23.024C95.7256 23.3013 95.635 23.536 95.4536 23.728C95.2723 23.9093 95.043 24 94.7656 24ZM110.012 12.8C110.566 12.8 111.084 12.96 111.564 13.28C112.054 13.6 112.449 14.032 112.748 14.576C113.046 15.12 113.196 15.728 113.196 16.4C113.196 17.0613 113.046 17.664 112.748 18.208C112.449 18.752 112.054 19.1893 111.564 19.52C111.084 19.84 110.566 20 110.012 20H107.068L107.228 19.712V23.024C107.228 23.3013 107.142 23.536 106.972 23.728C106.801 23.9093 106.577 24 106.299 24C106.033 24 105.814 23.9093 105.644 23.728C105.473 23.536 105.388 23.3013 105.388 23.024V13.776C105.388 13.4987 105.478 13.2693 105.66 13.088C105.852 12.896 106.086 12.8 106.364 12.8H110.012ZM110.012 18.176C110.214 18.176 110.412 18.0907 110.604 17.92C110.796 17.7493 110.956 17.5307 111.084 17.264C111.212 16.9867 111.276 16.6987 111.276 16.4C111.276 16.0907 111.212 15.8027 111.084 15.536C110.956 15.2693 110.796 15.056 110.604 14.896C110.412 14.7253 110.214 14.64 110.012 14.64H107.036L107.228 14.352V18.432L107.052 18.176H110.012ZM115.828 24C115.551 24 115.321 23.9093 115.14 23.728C114.959 23.536 114.868 23.3013 114.868 23.024V16.416C114.868 16.1387 114.959 15.9093 115.14 15.728C115.321 15.536 115.551 15.44 115.828 15.44C116.105 15.44 116.335 15.536 116.516 15.728C116.697 15.9093 116.788 16.1387 116.788 16.416V17.92L116.676 16.848C116.793 16.592 116.943 16.368 117.124 16.176C117.316 15.9733 117.529 15.808 117.764 15.68C117.999 15.5413 118.249 15.44 118.516 15.376C118.783 15.312 119.049 15.28 119.316 15.28C119.636 15.28 119.903 15.3707 120.116 15.552C120.34 15.7333 120.452 15.9467 120.452 16.192C120.452 16.544 120.361 16.8 120.18 16.96C119.999 17.1093 119.801 17.184 119.588 17.184C119.385 17.184 119.199 17.1467 119.028 17.072C118.868 16.9973 118.681 16.96 118.468 16.96C118.276 16.96 118.079 17.008 117.876 17.104C117.684 17.1893 117.503 17.328 117.332 17.52C117.172 17.712 117.039 17.952 116.932 18.24C116.836 18.5173 116.788 18.848 116.788 19.232V23.024C116.788 23.3013 116.697 23.536 116.516 23.728C116.335 23.9093 116.105 24 115.828 24ZM123.614 23.024C123.614 23.3013 123.523 23.536 123.342 23.728C123.16 23.9093 122.931 24 122.654 24C122.376 24 122.147 23.9093 121.966 23.728C121.784 23.536 121.694 23.3013 121.694 23.024V16.416C121.694 16.1387 121.784 15.9093 121.966 15.728C122.147 15.536 122.376 15.44 122.654 15.44C122.931 15.44 123.16 15.536 123.342 15.728C123.523 15.9093 123.614 16.1387 123.614 16.416V23.024ZM122.638 14.4C122.275 14.4 122.019 14.3413 121.87 14.224C121.72 14.1067 121.646 13.8987 121.646 13.6V13.296C121.646 12.9867 121.726 12.7787 121.886 12.672C122.056 12.5547 122.312 12.496 122.654 12.496C123.027 12.496 123.288 12.5547 123.438 12.672C123.587 12.7893 123.662 12.9973 123.662 13.296V13.6C123.662 13.9093 123.582 14.1227 123.422 14.24C123.262 14.3467 123 14.4 122.638 14.4ZM130.083 15.28C130.936 15.28 131.566 15.488 131.971 15.904C132.376 16.3093 132.643 16.8373 132.771 17.488L132.499 17.344L132.627 17.088C132.755 16.8427 132.952 16.5813 133.219 16.304C133.486 16.016 133.806 15.776 134.179 15.584C134.563 15.3813 134.99 15.28 135.459 15.28C136.227 15.28 136.808 15.4453 137.203 15.776C137.608 16.1067 137.886 16.5493 138.035 17.104C138.184 17.648 138.259 18.256 138.259 18.928V23.024C138.259 23.3013 138.168 23.536 137.987 23.728C137.806 23.9093 137.576 24 137.299 24C137.022 24 136.792 23.9093 136.611 23.728C136.43 23.536 136.339 23.3013 136.339 23.024V18.928C136.339 18.576 136.296 18.2613 136.211 17.984C136.126 17.696 135.971 17.4667 135.747 17.296C135.523 17.1253 135.203 17.04 134.787 17.04C134.382 17.04 134.035 17.1253 133.747 17.296C133.459 17.4667 133.24 17.696 133.091 17.984C132.952 18.2613 132.883 18.576 132.883 18.928V23.024C132.883 23.3013 132.792 23.536 132.611 23.728C132.43 23.9093 132.2 24 131.923 24C131.646 24 131.416 23.9093 131.235 23.728C131.054 23.536 130.963 23.3013 130.963 23.024V18.928C130.963 18.576 130.92 18.2613 130.835 17.984C130.75 17.696 130.595 17.4667 130.371 17.296C130.147 17.1253 129.827 17.04 129.411 17.04C129.006 17.04 128.659 17.1253 128.371 17.296C128.083 17.4667 127.864 17.696 127.715 17.984C127.576 18.2613 127.507 18.576 127.507 18.928V23.024C127.507 23.3013 127.416 23.536 127.235 23.728C127.054 23.9093 126.824 24 126.547 24C126.27 24 126.04 23.9093 125.859 23.728C125.678 23.536 125.587 23.3013 125.587 23.024V16.416C125.587 16.1387 125.678 15.9093 125.859 15.728C126.04 15.536 126.27 15.44 126.547 15.44C126.824 15.44 127.054 15.536 127.235 15.728C127.416 15.9093 127.507 16.1387 127.507 16.416V17.104L127.267 17.056C127.363 16.8747 127.496 16.6827 127.667 16.48C127.838 16.2667 128.046 16.0693 128.291 15.888C128.536 15.7067 128.808 15.5627 129.107 15.456C129.406 15.3387 129.731 15.28 130.083 15.28ZM144.369 24.16C143.462 24.16 142.673 23.9733 142.001 23.6C141.34 23.216 140.828 22.6987 140.465 22.048C140.113 21.3973 139.937 20.6613 139.937 19.84C139.937 18.88 140.129 18.064 140.513 17.392C140.908 16.7093 141.42 16.1867 142.049 15.824C142.678 15.4613 143.345 15.28 144.049 15.28C144.593 15.28 145.105 15.392 145.585 15.616C146.076 15.84 146.508 16.1493 146.881 16.544C147.254 16.928 147.548 17.376 147.761 17.888C147.985 18.4 148.097 18.944 148.097 19.52C148.086 19.776 147.985 19.984 147.793 20.144C147.601 20.304 147.377 20.384 147.121 20.384H141.009L140.529 18.784H146.401L146.049 19.104V18.672C146.028 18.3627 145.916 18.0853 145.713 17.84C145.521 17.5947 145.276 17.4027 144.977 17.264C144.689 17.1147 144.38 17.04 144.049 17.04C143.729 17.04 143.43 17.0827 143.153 17.168C142.876 17.2533 142.636 17.3973 142.433 17.6C142.23 17.8027 142.07 18.0747 141.953 18.416C141.836 18.7573 141.777 19.1893 141.777 19.712C141.777 20.288 141.894 20.7787 142.129 21.184C142.374 21.5787 142.684 21.8827 143.057 22.096C143.441 22.2987 143.846 22.4 144.273 22.4C144.668 22.4 144.982 22.368 145.217 22.304C145.452 22.24 145.638 22.1653 145.777 22.08C145.926 21.984 146.06 21.904 146.177 21.84C146.369 21.744 146.55 21.696 146.721 21.696C146.956 21.696 147.148 21.776 147.297 21.936C147.457 22.096 147.537 22.2827 147.537 22.496C147.537 22.784 147.388 23.0453 147.089 23.28C146.812 23.5147 146.422 23.7227 145.921 23.904C145.42 24.0747 144.902 24.16 144.369 24.16Z" fill="white"/>
</svg>
