<svg width="300" height="300" viewBox="0 0 300 300" fill="none" xmlns="http://www.w3.org/2000/svg">
<path fill-rule="evenodd" clip-rule="evenodd" d="M94.7626 128.555C100.022 91.9505 125.17 67.477 154.767 67.9692C181.599 68.4192 206.977 90.4083 206.349 130.604C211.566 128.752 216.291 129.047 218.864 131.874C223.214 136.655 219.759 146.902 211.149 154.735C206.466 158.996 201.22 161.672 196.706 162.46C196.51 162.779 196.313 163.102 196.111 163.421C191.424 170.986 185.845 178.772 181.899 191.25C178.097 203.269 177.717 215.405 177.858 221.986C177.956 224.682 176.888 227.288 174.919 229.14C172.931 231.005 170.231 231.915 167.522 231.624C167.456 231.619 167.395 231.61 167.335 231.6C140.499 227.635 107.133 197.452 96.9236 163.58C92.9204 161.433 88.8095 157.327 85.6923 151.927C79.8704 141.844 79.6923 131.035 85.2939 127.8C87.8954 126.3 91.2892 126.694 94.7626 128.555V128.555ZM274.219 158.011V195.511C274.219 198.099 276.319 200.199 278.906 200.199C281.494 200.199 283.594 198.099 283.594 195.511V129.886C283.594 127.299 281.494 125.199 278.906 125.199C276.319 125.199 274.219 127.299 274.219 129.886V148.636H245.11L278.213 94.8426C279.567 92.6395 278.878 89.752 276.675 88.3926C274.472 87.038 271.584 87.727 270.225 89.9301L232.725 150.868C231.834 152.311 231.797 154.13 232.627 155.611C233.456 157.093 235.022 158.011 236.719 158.011H274.219ZM58.5939 158.011V195.511C58.5939 198.099 60.6939 200.199 63.2814 200.199C65.8689 200.199 67.9689 198.099 67.9689 195.511V129.886C67.9689 127.299 65.8689 125.199 63.2814 125.199C60.6939 125.199 58.5939 127.299 58.5939 129.886V148.636H29.4845L62.5876 94.8426C63.9423 92.6395 63.2533 89.752 61.0501 88.3926C58.847 87.038 55.9595 87.727 54.6001 89.9301L17.1001 150.868C16.2095 152.311 16.172 154.13 17.0017 155.611C17.8314 157.093 19.397 158.011 21.0939 158.011H58.5939ZM196.514 120.793C188.522 150.075 163.725 171.446 134.41 171.446C124.711 171.446 115.505 169.107 107.241 164.911C106.688 163.388 106.186 161.855 105.731 160.313C104.063 154.59 103.125 148.763 103.125 142.969C103.125 104.625 125.855 76.8614 154.608 77.3442C174.839 77.6817 193.364 93.1645 196.514 120.793V120.793ZM150 125.199C155.175 125.199 159.375 131.499 159.375 139.261C159.375 147.024 155.175 153.324 150 153.324C144.825 153.324 140.625 147.024 140.625 139.261C140.625 131.499 144.825 125.199 150 125.199ZM133.43 104.04C134.677 108.615 134.756 116.354 127.931 120.971C126.352 122.035 125.939 124.182 127.003 125.757C128.067 127.336 130.214 127.749 131.794 126.685C141.699 119.991 141.895 108.863 140.086 102.225C139.585 100.393 137.686 99.3051 135.853 99.8067C134.016 100.308 132.928 102.207 133.43 104.04V104.04ZM159.474 102.225C157.669 108.863 157.866 119.991 167.77 126.685C169.345 127.749 171.492 127.336 172.556 125.757C173.625 124.182 173.208 122.035 171.633 120.971C164.803 116.354 164.883 108.615 166.13 104.04C166.631 102.207 165.549 100.308 163.711 99.8067C161.874 99.3051 159.975 100.393 159.474 102.225V102.225Z" fill="#333333"/>
</svg>
